# xmcd CD database file
#
# Track frame offsets:
#	150
#	19097
#	35480
#	57001
#	77508
#	92996
#	109574
#	117835
#	133306
#	152444
#	167814
#	186231
#
# Disc length: 2759 seconds
#
# Revision: 2
# Processed by: cddbd v1.5.1PL0 Copyright (c) Steve Scherf et al.
# Submitted via: CDex 1.50beta8
#
DISCID=930ac50c
DTITLE=Richard Greene - The Grass Is Greener
DYEAR=1900
DGENRE=
TTITLE0=The Methodist Preacher
TTITLE1=Home Sweet Home
TTITLE2=The Virgin's Lament
TTITLE3=Northern White Clouds
TTITLE4=Whiskey Before Breakfast
TTITLE5=Stoney Lonesome
TTITLE6=The Cannonball Blues
TTITLE7=Panhandle Country
TTITLE8=Faded Love
TTITLE9=The Kentucky Mandolin
TTITLE10=The Brown County Breakdown
TTITLE11=The Beaumont Rag
EXTD=
EXTT0=
EXTT1=
EXTT2=
EXTT3=
EXTT4=
EXTT5=
EXTT6=
EXTT7=
EXTT8=
EXTT9=
EXTT10=
EXTT11=
PLAYORDER=
